<svg xmlns="http://www.w3.org/2000/svg" width="512" height="512" fill="none">
  <rect width="512" height="512" fill="#fff" rx="100"/>
  <path stroke="#000" stroke-width="20" d="M192.6 413.3a26 26 0 1 1-51.9 0 26 26 0 0 1 52 0ZM424.2 383.2a26 26 0 1 1-52-.1 26 26 0 0 1 52 0ZM324.2 190.7a26 26 0 1 1-52 0 26 26 0 0 1 52 0Z"/>
  <path stroke="#000" stroke-linecap="round" stroke-width="20" d="m141.5 122 109.1 53.4m80.2 55.2L378.6 339m-28 52.8-134.4 20.6M188 369.6l79.5-139"/>
  <path stroke="#000" stroke-width="20" d="M126 99a26 26 0 1 1-52-.2 26 26 0 0 1 52 .1Z"/>
  <path fill="#000" d="m416.7 192.4-5.1-8.5 5.1 8.5Zm23.1-25.7 9 4.3-9-4.3Zm5-34.1-10 1.5 10-1.5Zm-15-31.1-7.4 6.7 7.4-6.7Zm-29.7-17.6-2.4 9.7 2.4-9.7Zm-34.6 1.8 3.5 9.4-3.5-9.4Zm-42.1 54.5 4.2 9-9.6 4.5-4-9.9 9.4-3.6Zm22.7 69.1a10 10 0 1 1 1-20l-1 20Zm-42.4-91.7a10 10 0 0 1 18.6-7.4l-18.6 7.4Zm41.4 1.3a10 10 0 1 1 8.5 18.1l-8.5-18Zm38.6 72c9.8.5 19.5-2 27.9-7l10.3 17a69.6 69.6 0 0 1-39.1 10l.9-20Zm27.9-7c8.3-5.1 15-12.5 19.2-21.4l18 8.5a69.5 69.5 0 0 1-26.9 30l-10.3-17.1Zm19.2-21.4a49.3 49.3 0 0 0 4-28.4l19.8-3c2.1 13.6.1 27.4-5.7 39.9l-18.1-8.5Zm4-28.4a49.4 49.4 0 0 0-12.4-25.9l14.8-13.5a69.4 69.4 0 0 1 17.4 36.4l-19.8 3Zm-12.4-25.9a49.6 49.6 0 0 0-24.7-14.6l4.7-19.4a69.6 69.6 0 0 1 34.8 20.5l-14.8 13.5Zm-24.7-14.6a49.7 49.7 0 0 0-28.7 1.5L362 76.3c13-4.6 27-5.4 40.3-2.1l-4.7 19.4ZM369 95.1a49.5 49.5 0 0 0-23 17.3l-16.2-11.9a69.5 69.5 0 0 1 32.3-24.2l6.9 18.8Zm-23 17.3a53.4 53.4 0 0 0-6.8 13c-1 2.5-1.9 5.3-3 8.4l-3.5 9.9-18.7-7 3.3-9.4c1-3 2.1-6.1 3.3-9.1 2.2-6 5-12 9.2-17.7l16.1 11.9Zm1 77 36.7 1.6-1 20-36.6-1.7 1-20Zm-33-45.6-10.3-26.2 18.6-7.4 10.4 26.3-18.6 7.3Zm5.1-12.7 26-12.2 8.5 18.1-26 12.2-8.5-18Z"/>
</svg>
